<svg viewBox="0 0 30 30" fill="none" xmlns="http://www.w3.org/2000/svg">
<path d="M15 12.8787L27.4393 0.43934C28.0251 -0.146447 28.9749 -0.146447 29.5607 0.43934C30.1464 1.02513 30.1464 1.97487 29.5607 2.56066L17.1213 15L29.5607 27.4393C30.1464 28.0251 30.1464 28.9749 29.5607 29.5607C28.9749 30.1464 28.0251 30.1464 27.4393 29.5607L15 17.1213L2.56066 29.5607C1.97487 30.1464 1.02513 30.1464 0.43934 29.5607C-0.146447 28.9749 -0.146447 28.0251 0.43934 27.4393L12.8787 15L0.43934 2.56066C-0.146447 1.97487 -0.146447 1.02513 0.43934 0.43934C1.02513 -0.146447 1.97487 -0.146447 2.56066 0.43934L15 12.8787Z" fill="currentColor"/>
</svg>
