<svg width="18" height="16" viewBox="0 0 18 16" fill="none" xmlns="http://www.w3.org/2000/svg">
<path d="M10.4109 2.25099L10.4105 2.25147L9.71789 2.96512L9.00026 3.70461L8.28263 2.96512L7.59006 2.25147L7.58891 2.25028C6.14753 0.76009 3.87521 0.577921 2.3965 1.83786C0.63438 3.34219 0.537834 6.05603 2.11796 7.69008C2.11801 7.69013 2.11806 7.69018 2.1181 7.69022C2.1182 7.69032 2.11829 7.69042 2.11838 7.69052L8.92038 14.714C8.92044 14.714 8.92051 14.7141 8.92057 14.7142C8.94734 14.7417 8.97438 14.75 8.9985 14.75C9.02267 14.75 9.04979 14.7417 9.07662 14.714L15.879 7.69008L15.8792 7.68988C17.4625 6.056 17.3662 3.34246 15.6042 1.83804L10.4109 2.25099ZM10.4109 2.25099C11.8563 0.759632 14.1253 0.578285 15.6037 1.83755L10.4109 2.25099Z" stroke="#8B94B2" stroke-width="2"/>
</svg>
